<?xml version='1.0' encoding='UTF-8'?>
<svg x="0px" y="0px" viewBox="0 0 32 32" version="1.1" xmlns="http://www.w3.org/2000/svg" xmlns:xlink="http://www.w3.org/1999/xlink" xml:space="preserve" id="Layer_1" style="enable-background:new 0 0 32 32">
  <style type="text/css">
	.Black{fill:#727272;}
	.Yellow{fill:#FFB115;}
	.Blue{fill:#1177D7;}
	.Red{fill:#D11C1C;}
	.White{fill:#FFFFFF;}
	.Green{fill:#039C23;}
	.st0{fill:#727272;}
	.st1{opacity:0.5;}
	.st2{opacity:0.75;}
</style>
  <g id="CustomerQuickSales">
    <g class="st2">
      <path d="M12,12H6v-2h6V12z M12,14H6v2h6V14z M12,18H6v2h6V18z" class="Black" />
    </g>
    <path d="M14,24H2V6h24v6h2V5c0-0.5-0.5-1-1-1H1C0.5,4,0,4.5,0,5v20c0,0.5,0.5,1,1,1h13V24z" class="Black" />
    <path d="M22,30c0,1.1-0.9,2-2,2c-1.1,0-2-0.9-2-2c0-1.1,0.9-2,2-2C21.1,28,22,28.9,22,30z M28,28c-1.1,0-2,0.9-2,2   c0,1.1,0.9,2,2,2c1.1,0,2-0.9,2-2C30,28.9,29.1,28,28,28z M18,24v-8h-4v2h2v8h16v-2H18z M21,22h8c0.5,0,1-0.5,1-1v-6   c0-0.5-0.5-1-1-1h-8c-0.5,0-1,0.5-1,1v6C20,21.5,20.5,22,21,22z" class="Red" />
  </g>
</svg>